solid OpenSCAD_Model
  facet normal 1 0 0
    outer loop
      vertex 90 30 9
      vertex 90 25.25 4.73
      vertex 90 30 0
    endloop
  endfacet
  facet normal 1 0 0
    outer loop
      vertex 90 30 9
      vertex 90 4.75 4.73
      vertex 90 25.25 4.73
    endloop
  endfacet
  facet normal 1 0 -0
    outer loop
      vertex 90 4.75 4.73
      vertex 90 30 9
      vertex 90 0 9
    endloop
  endfacet
  facet normal 1 0 0
    outer loop
      vertex 90 30 0
      vertex 90 25.25 4.73
      vertex 90 23.2584 0
    endloop
  endfacet
  facet normal 1 0 0
    outer loop
      vertex 90 0 0
      vertex 90 4.75 4.73
      vertex 90 0 9
    endloop
  endfacet
  facet normal 1 0 0
    outer loop
      vertex 90 4.75 4.73
      vertex 90 0 0
      vertex 90 6.74158 0
    endloop
  endfacet
  facet normal -0 0 1
    outer loop
      vertex 6.75 5.75 9
      vertex 18 5 9
      vertex 6.75 24.25 9
    endloop
  endfacet
  facet normal 0 0 1
    outer loop
      vertex 10 28 9
      vertex 3.25 24.25 9
      vertex 6.75 24.25 9
    endloop
  endfacet
  facet normal 0 0 1
    outer loop
      vertex 3.25 24.25 9
      vertex 0 28 9
      vertex 3.25 5.75 9
    endloop
  endfacet
  facet normal -0 0 1
    outer loop
      vertex 0 28 9
      vertex 3.25 24.25 9
      vertex 10 28 9
    endloop
  endfacet
  facet normal 0 0 1
    outer loop
      vertex 18 5 9
      vertex 6.75 5.75 9
      vertex 10 2 9
    endloop
  endfacet
  facet normal -0 0 1
    outer loop
      vertex 3.25 5.75 9
      vertex 10 2 9
      vertex 6.75 5.75 9
    endloop
  endfacet
  facet normal 0 0 1
    outer loop
      vertex 3.25 5.75 9
      vertex 0 2 9
      vertex 10 2 9
    endloop
  endfacet
  facet normal 0 0 1
    outer loop
      vertex 0 2 9
      vertex 3.25 5.75 9
      vertex 0 28 9
    endloop
  endfacet
  facet normal 0 0 1
    outer loop
      vertex 90 30 9
      vertex 76.75 24.25 9
      vertex 90 0 9
    endloop
  endfacet
  facet normal 0 0 1
    outer loop
      vertex 90 30 9
      vertex 73.25 24.25 9
      vertex 76.75 24.25 9
    endloop
  endfacet
  facet normal 0 0 1
    outer loop
      vertex 73.25 24.25 9
      vertex 71.75 24.25 9
      vertex 73.25 5.75 9
    endloop
  endfacet
  facet normal 0 0 1
    outer loop
      vertex 90 30 9
      vertex 71.75 24.25 9
      vertex 73.25 24.25 9
    endloop
  endfacet
  facet normal 0 0 1
    outer loop
      vertex 90 30 9
      vertex 68.25 24.25 9
      vertex 71.75 24.25 9
    endloop
  endfacet
  facet normal 0 0 1
    outer loop
      vertex 68.25 24.25 9
      vertex 66.75 24.25 9
      vertex 68.25 5.75 9
    endloop
  endfacet
  facet normal 0 0 1
    outer loop
      vertex 90 30 9
      vertex 66.75 24.25 9
      vertex 68.25 24.25 9
    endloop
  endfacet
  facet normal 0 0 1
    outer loop
      vertex 90 30 9
      vertex 63.25 24.25 9
      vertex 66.75 24.25 9
    endloop
  endfacet
  facet normal 0 0 1
    outer loop
      vertex 63.25 24.25 9
      vertex 61.75 24.25 9
      vertex 63.25 5.75 9
    endloop
  endfacet
  facet normal 0 0 1
    outer loop
      vertex 90 30 9
      vertex 61.75 24.25 9
      vertex 63.25 24.25 9
    endloop
  endfacet
  facet normal 0 0 1
    outer loop
      vertex 90 30 9
      vertex 58.25 24.25 9
      vertex 61.75 24.25 9
    endloop
  endfacet
  facet normal 0 0 1
    outer loop
      vertex 58.25 24.25 9
      vertex 56.75 24.25 9
      vertex 58.25 5.75 9
    endloop
  endfacet
  facet normal -0 0 1
    outer loop
      vertex 49 25 9
      vertex 58.25 24.25 9
      vertex 90 30 9
    endloop
  endfacet
  facet normal 0 0 1
    outer loop
      vertex 58.25 24.25 9
      vertex 49 25 9
      vertex 56.75 24.25 9
    endloop
  endfacet
  facet normal 0 0 1
    outer loop
      vertex 53.25 24.25 9
      vertex 51.75 24.25 9
      vertex 53.25 5.75 9
    endloop
  endfacet
  facet normal 0 0 1
    outer loop
      vertex 56.75 24.25 9
      vertex 49 25 9
      vertex 53.25 24.25 9
    endloop
  endfacet
  facet normal 0 0 1
    outer loop
      vertex 53.25 24.25 9
      vertex 49 25 9
      vertex 51.75 24.25 9
    endloop
  endfacet
  facet normal -0 0 1
    outer loop
      vertex 10 30 9
      vertex 49 25 9
      vertex 90 30 9
    endloop
  endfacet
  facet normal 0 0 1
    outer loop
      vertex 42 25 9
      vertex 37 25 9
      vertex 42 5 9
    endloop
  endfacet
  facet normal 0 0 1
    outer loop
      vertex 49 25 9
      vertex 10 30 9
      vertex 42 25 9
    endloop
  endfacet
  facet normal 0 0 1
    outer loop
      vertex 42 25 9
      vertex 10 30 9
      vertex 37 25 9
    endloop
  endfacet
  facet normal 0 0 1
    outer loop
      vertex 30 25 9
      vertex 25 25 9
      vertex 30 5 9
    endloop
  endfacet
  facet normal 0 0 1
    outer loop
      vertex 37 25 9
      vertex 10 30 9
      vertex 30 25 9
    endloop
  endfacet
  facet normal 0 0 1
    outer loop
      vertex 30 25 9
      vertex 10 30 9
      vertex 25 25 9
    endloop
  endfacet
  facet normal -0 0 1
    outer loop
      vertex 10 28 9
      vertex 18 25 9
      vertex 10 30 9
    endloop
  endfacet
  facet normal 0 0 1
    outer loop
      vertex 25 25 9
      vertex 10 30 9
      vertex 18 25 9
    endloop
  endfacet
  facet normal -0 0 1
    outer loop
      vertex 76.75 5.75 9
      vertex 90 0 9
      vertex 76.75 24.25 9
    endloop
  endfacet
  facet normal -0 0 1
    outer loop
      vertex 73.25 5.75 9
      vertex 90 0 9
      vertex 76.75 5.75 9
    endloop
  endfacet
  facet normal 0 0 1
    outer loop
      vertex 71.75 5.75 9
      vertex 73.25 5.75 9
      vertex 71.75 24.25 9
    endloop
  endfacet
  facet normal -0 0 1
    outer loop
      vertex 71.75 5.75 9
      vertex 90 0 9
      vertex 73.25 5.75 9
    endloop
  endfacet
  facet normal -0 0 1
    outer loop
      vertex 68.25 5.75 9
      vertex 90 0 9
      vertex 71.75 5.75 9
    endloop
  endfacet
  facet normal 0 0 1
    outer loop
      vertex 66.75 5.75 9
      vertex 68.25 5.75 9
      vertex 66.75 24.25 9
    endloop
  endfacet
  facet normal -0 0 1
    outer loop
      vertex 66.75 5.75 9
      vertex 90 0 9
      vertex 68.25 5.75 9
    endloop
  endfacet
  facet normal -0 0 1
    outer loop
      vertex 63.25 5.75 9
      vertex 90 0 9
      vertex 66.75 5.75 9
    endloop
  endfacet
  facet normal 0 0 1
    outer loop
      vertex 61.75 5.75 9
      vertex 63.25 5.75 9
      vertex 61.75 24.25 9
    endloop
  endfacet
  facet normal -0 0 1
    outer loop
      vertex 61.75 5.75 9
      vertex 90 0 9
      vertex 63.25 5.75 9
    endloop
  endfacet
  facet normal -0 0 1
    outer loop
      vertex 58.25 5.75 9
      vertex 90 0 9
      vertex 61.75 5.75 9
    endloop
  endfacet
  facet normal 0 0 1
    outer loop
      vertex 56.75 5.75 9
      vertex 58.25 5.75 9
      vertex 56.75 24.25 9
    endloop
  endfacet
  facet normal 0 0 1
    outer loop
      vertex 49 5 9
      vertex 58.25 5.75 9
      vertex 56.75 5.75 9
    endloop
  endfacet
  facet normal 0 0 1
    outer loop
      vertex 49 5 9
      vertex 56.75 5.75 9
      vertex 53.25 5.75 9
    endloop
  endfacet
  facet normal 0 0 1
    outer loop
      vertex 51.75 5.75 9
      vertex 53.25 5.75 9
      vertex 51.75 24.25 9
    endloop
  endfacet
  facet normal 0 0 1
    outer loop
      vertex 49 5 9
      vertex 53.25 5.75 9
      vertex 51.75 5.75 9
    endloop
  endfacet
  facet normal 0 0 1
    outer loop
      vertex 49 5 9
      vertex 51.75 5.75 9
      vertex 49 5.75 9
    endloop
  endfacet
  facet normal 0 0 1
    outer loop
      vertex 58.25 5.75 9
      vertex 49 5 9
      vertex 90 0 9
    endloop
  endfacet
  facet normal 0 0 1
    outer loop
      vertex 10 0 9
      vertex 49 5 9
      vertex 42 5 9
    endloop
  endfacet
  facet normal 0 0 1
    outer loop
      vertex 37 5 9
      vertex 42 5 9
      vertex 37 25 9
    endloop
  endfacet
  facet normal 0 0 1
    outer loop
      vertex 10 0 9
      vertex 42 5 9
      vertex 37 5 9
    endloop
  endfacet
  facet normal 0 0 1
    outer loop
      vertex 10 0 9
      vertex 37 5 9
      vertex 30 5 9
    endloop
  endfacet
  facet normal 0 0 1
    outer loop
      vertex 25 5 9
      vertex 30 5 9
      vertex 25 25 9
    endloop
  endfacet
  facet normal 0 0 1
    outer loop
      vertex 10 0 9
      vertex 30 5 9
      vertex 25 5 9
    endloop
  endfacet
  facet normal 0 0 1
    outer loop
      vertex 10 0 9
      vertex 25 5 9
      vertex 18 5 9
    endloop
  endfacet
  facet normal 0 0 1
    outer loop
      vertex 6.75 24.25 9
      vertex 18 25 9
      vertex 10 28 9
    endloop
  endfacet
  facet normal 0 0 1
    outer loop
      vertex 18 25 9
      vertex 6.75 24.25 9
      vertex 18 5 9
    endloop
  endfacet
  facet normal 0 0 1
    outer loop
      vertex 10 0 9
      vertex 18 5 9
      vertex 10 2 9
    endloop
  endfacet
  facet normal 0 0 1
    outer loop
      vertex 49 5 9
      vertex 10 0 9
      vertex 90 0 9
    endloop
  endfacet
  facet normal 0 0 1
    outer loop
      vertex 51.75 24.25 9
      vertex 49 25 9
      vertex 49 24.25 9
    endloop
  endfacet
  facet normal 0 0 -1
    outer loop
      vertex 90 0 0
      vertex 59.98 6.74158 0
      vertex 90 6.74158 0
    endloop
  endfacet
  facet normal -0 0 -1
    outer loop
      vertex 59.98 6.74158 0
      vertex 0 0 0
      vertex 59.98 23.2584 0
    endloop
  endfacet
  facet normal 0 0 -1
    outer loop
      vertex 0 0 0
      vertex 59.98 6.74158 0
      vertex 90 0 0
    endloop
  endfacet
  facet normal 0 0 -1
    outer loop
      vertex 59.98 23.2584 0
      vertex 90 30 0
      vertex 90 23.2584 0
    endloop
  endfacet
  facet normal 0 0 -1
    outer loop
      vertex 59.98 23.2584 0
      vertex 0 30 0
      vertex 90 30 0
    endloop
  endfacet
  facet normal 0 0 -1
    outer loop
      vertex 0 30 0
      vertex 59.98 23.2584 0
      vertex 0 0 0
    endloop
  endfacet
  facet normal -1 0 0
    outer loop
      vertex 0 30 0
      vertex 0 28 9
      vertex 0 30 10
    endloop
  endfacet
  facet normal -1 0 0
    outer loop
      vertex 0 30 0
      vertex 0 2 9
      vertex 0 28 9
    endloop
  endfacet
  facet normal -1 0 0
    outer loop
      vertex 0 0 0
      vertex 0 2 9
      vertex 0 30 0
    endloop
  endfacet
  facet normal -1 0 0
    outer loop
      vertex 0 0 10
      vertex 0 2 9
      vertex 0 0 0
    endloop
  endfacet
  facet normal -1 0 0
    outer loop
      vertex 0 2 9
      vertex 0 0 10
      vertex 0 2 10
    endloop
  endfacet
  facet normal -1 -0 0
    outer loop
      vertex 0 30 10
      vertex 0 28 9
      vertex 0 28 10
    endloop
  endfacet
  facet normal 0 1 0
    outer loop
      vertex 90 30 9
      vertex 90 30 0
      vertex 10 30 9
    endloop
  endfacet
  facet normal 0 1 -0
    outer loop
      vertex 10 30 9
      vertex 0 30 10
      vertex 10 30 10
    endloop
  endfacet
  facet normal 0 1 0
    outer loop
      vertex 0 30 0
      vertex 10 30 9
      vertex 90 30 0
    endloop
  endfacet
  facet normal 0 1 0
    outer loop
      vertex 10 30 9
      vertex 0 30 0
      vertex 0 30 10
    endloop
  endfacet
  facet normal 0 -1 0
    outer loop
      vertex 0 0 10
      vertex 10 0 9
      vertex 10 0 10
    endloop
  endfacet
  facet normal 0 -1 0
    outer loop
      vertex 0 0 0
      vertex 10 0 9
      vertex 0 0 10
    endloop
  endfacet
  facet normal 0 -1 0
    outer loop
      vertex 90 0 0
      vertex 10 0 9
      vertex 0 0 0
    endloop
  endfacet
  facet normal 0 -1 0
    outer loop
      vertex 10 0 9
      vertex 90 0 0
      vertex 90 0 9
    endloop
  endfacet
  facet normal 1 -0 0
    outer loop
      vertex 10 0 10
      vertex 10 2 9
      vertex 10 2 10
    endloop
  endfacet
  facet normal 1 0 0
    outer loop
      vertex 10 2 9
      vertex 10 0 10
      vertex 10 0 9
    endloop
  endfacet
  facet normal -0 0 1
    outer loop
      vertex 0 2 10
      vertex 10 0 10
      vertex 10 2 10
    endloop
  endfacet
  facet normal 0 0 1
    outer loop
      vertex 10 0 10
      vertex 0 2 10
      vertex 0 0 10
    endloop
  endfacet
  facet normal 0 1 -0
    outer loop
      vertex 10 2 9
      vertex 0 2 10
      vertex 10 2 10
    endloop
  endfacet
  facet normal 0 1 0
    outer loop
      vertex 0 2 10
      vertex 10 2 9
      vertex 0 2 9
    endloop
  endfacet
  facet normal 1 -0 0
    outer loop
      vertex 10 28 10
      vertex 10 30 9
      vertex 10 30 10
    endloop
  endfacet
  facet normal 1 0 0
    outer loop
      vertex 10 30 9
      vertex 10 28 10
      vertex 10 28 9
    endloop
  endfacet
  facet normal -0 0 1
    outer loop
      vertex 0 30 10
      vertex 10 28 10
      vertex 10 30 10
    endloop
  endfacet
  facet normal 0 0 1
    outer loop
      vertex 10 28 10
      vertex 0 30 10
      vertex 0 28 10
    endloop
  endfacet
  facet normal 0 -1 0
    outer loop
      vertex 0 28 9
      vertex 10 28 10
      vertex 0 28 10
    endloop
  endfacet
  facet normal 0 -1 -0
    outer loop
      vertex 10 28 10
      vertex 0 28 9
      vertex 10 28 9
    endloop
  endfacet
  facet normal -1 0 0
    outer loop
      vertex 51.75 5.75 6
      vertex 51.75 24.25 9
      vertex 51.75 24.25 6
    endloop
  endfacet
  facet normal -1 -0 0
    outer loop
      vertex 51.75 24.25 9
      vertex 51.75 5.75 6
      vertex 51.75 5.75 9
    endloop
  endfacet
  facet normal -0 0 1
    outer loop
      vertex 49 24.25 6
      vertex 51.75 5.75 6
      vertex 51.75 24.25 6
    endloop
  endfacet
  facet normal 0 0 1
    outer loop
      vertex 51.75 5.75 6
      vertex 49 24.25 6
      vertex 49 5.75 6
    endloop
  endfacet
  facet normal 0 -1 0
    outer loop
      vertex 49 24.25 6
      vertex 51.75 24.25 9
      vertex 49 24.25 9
    endloop
  endfacet
  facet normal 0 -1 -0
    outer loop
      vertex 51.75 24.25 9
      vertex 49 24.25 6
      vertex 51.75 24.25 6
    endloop
  endfacet
  facet normal 0 1 -0
    outer loop
      vertex 51.75 5.75 6
      vertex 49 5.75 9
      vertex 51.75 5.75 9
    endloop
  endfacet
  facet normal 0 1 0
    outer loop
      vertex 49 5.75 9
      vertex 51.75 5.75 6
      vertex 49 5.75 6
    endloop
  endfacet
  facet normal -1 0 0
    outer loop
      vertex 56.75 5.75 6
      vertex 56.75 24.25 9
      vertex 56.75 24.25 6
    endloop
  endfacet
  facet normal -1 -0 0
    outer loop
      vertex 56.75 24.25 9
      vertex 56.75 5.75 6
      vertex 56.75 5.75 9
    endloop
  endfacet
  facet normal -0 0 1
    outer loop
      vertex 53.25 24.25 6
      vertex 56.75 5.75 6
      vertex 56.75 24.25 6
    endloop
  endfacet
  facet normal 0 0 1
    outer loop
      vertex 56.75 5.75 6
      vertex 53.25 24.25 6
      vertex 53.25 5.75 6
    endloop
  endfacet
  facet normal 1 -0 0
    outer loop
      vertex 53.25 5.75 9
      vertex 53.25 24.25 6
      vertex 53.25 24.25 9
    endloop
  endfacet
  facet normal 1 0 0
    outer loop
      vertex 53.25 24.25 6
      vertex 53.25 5.75 9
      vertex 53.25 5.75 6
    endloop
  endfacet
  facet normal 0 -1 0
    outer loop
      vertex 53.25 24.25 6
      vertex 56.75 24.25 9
      vertex 53.25 24.25 9
    endloop
  endfacet
  facet normal 0 -1 -0
    outer loop
      vertex 56.75 24.25 9
      vertex 53.25 24.25 6
      vertex 56.75 24.25 6
    endloop
  endfacet
  facet normal 0 1 -0
    outer loop
      vertex 56.75 5.75 6
      vertex 53.25 5.75 9
      vertex 56.75 5.75 9
    endloop
  endfacet
  facet normal 0 1 0
    outer loop
      vertex 53.25 5.75 9
      vertex 56.75 5.75 6
      vertex 53.25 5.75 6
    endloop
  endfacet
  facet normal -1 0 0
    outer loop
      vertex 61.75 5.75 6
      vertex 61.75 24.25 9
      vertex 61.75 24.25 6
    endloop
  endfacet
  facet normal -1 -0 0
    outer loop
      vertex 61.75 24.25 9
      vertex 61.75 5.75 6
      vertex 61.75 5.75 9
    endloop
  endfacet
  facet normal -0 0 1
    outer loop
      vertex 58.25 24.25 6
      vertex 61.75 5.75 6
      vertex 61.75 24.25 6
    endloop
  endfacet
  facet normal 0 0 1
    outer loop
      vertex 61.75 5.75 6
      vertex 58.25 24.25 6
      vertex 58.25 5.75 6
    endloop
  endfacet
  facet normal 1 -0 0
    outer loop
      vertex 58.25 5.75 9
      vertex 58.25 24.25 6
      vertex 58.25 24.25 9
    endloop
  endfacet
  facet normal 1 0 0
    outer loop
      vertex 58.25 24.25 6
      vertex 58.25 5.75 9
      vertex 58.25 5.75 6
    endloop
  endfacet
  facet normal 0 -1 0
    outer loop
      vertex 58.25 24.25 6
      vertex 61.75 24.25 9
      vertex 58.25 24.25 9
    endloop
  endfacet
  facet normal 0 -1 -0
    outer loop
      vertex 61.75 24.25 9
      vertex 58.25 24.25 6
      vertex 61.75 24.25 6
    endloop
  endfacet
  facet normal 0 1 -0
    outer loop
      vertex 61.75 5.75 6
      vertex 58.25 5.75 9
      vertex 61.75 5.75 9
    endloop
  endfacet
  facet normal 0 1 0
    outer loop
      vertex 58.25 5.75 9
      vertex 61.75 5.75 6
      vertex 58.25 5.75 6
    endloop
  endfacet
  facet normal -1 0 0
    outer loop
      vertex 66.75 5.75 6
      vertex 66.75 24.25 9
      vertex 66.75 24.25 6
    endloop
  endfacet
  facet normal -1 -0 0
    outer loop
      vertex 66.75 24.25 9
      vertex 66.75 5.75 6
      vertex 66.75 5.75 9
    endloop
  endfacet
  facet normal -0 0 1
    outer loop
      vertex 63.25 24.25 6
      vertex 66.75 5.75 6
      vertex 66.75 24.25 6
    endloop
  endfacet
  facet normal 0 0 1
    outer loop
      vertex 66.75 5.75 6
      vertex 63.25 24.25 6
      vertex 63.25 5.75 6
    endloop
  endfacet
  facet normal 1 -0 0
    outer loop
      vertex 63.25 5.75 9
      vertex 63.25 24.25 6
      vertex 63.25 24.25 9
    endloop
  endfacet
  facet normal 1 0 0
    outer loop
      vertex 63.25 24.25 6
      vertex 63.25 5.75 9
      vertex 63.25 5.75 6
    endloop
  endfacet
  facet normal 0 -1 0
    outer loop
      vertex 63.25 24.25 6
      vertex 66.75 24.25 9
      vertex 63.25 24.25 9
    endloop
  endfacet
  facet normal 0 -1 -0
    outer loop
      vertex 66.75 24.25 9
      vertex 63.25 24.25 6
      vertex 66.75 24.25 6
    endloop
  endfacet
  facet normal 0 1 -0
    outer loop
      vertex 66.75 5.75 6
      vertex 63.25 5.75 9
      vertex 66.75 5.75 9
    endloop
  endfacet
  facet normal 0 1 0
    outer loop
      vertex 63.25 5.75 9
      vertex 66.75 5.75 6
      vertex 63.25 5.75 6
    endloop
  endfacet
  facet normal -1 0 0
    outer loop
      vertex 71.75 5.75 6
      vertex 71.75 24.25 9
      vertex 71.75 24.25 6
    endloop
  endfacet
  facet normal -1 -0 0
    outer loop
      vertex 71.75 24.25 9
      vertex 71.75 5.75 6
      vertex 71.75 5.75 9
    endloop
  endfacet
  facet normal -0 0 1
    outer loop
      vertex 68.25 24.25 6
      vertex 71.75 5.75 6
      vertex 71.75 24.25 6
    endloop
  endfacet
  facet normal 0 0 1
    outer loop
      vertex 71.75 5.75 6
      vertex 68.25 24.25 6
      vertex 68.25 5.75 6
    endloop
  endfacet
  facet normal 1 -0 0
    outer loop
      vertex 68.25 5.75 9
      vertex 68.25 24.25 6
      vertex 68.25 24.25 9
    endloop
  endfacet
  facet normal 1 0 0
    outer loop
      vertex 68.25 24.25 6
      vertex 68.25 5.75 9
      vertex 68.25 5.75 6
    endloop
  endfacet
  facet normal 0 -1 0
    outer loop
      vertex 68.25 24.25 6
      vertex 71.75 24.25 9
      vertex 68.25 24.25 9
    endloop
  endfacet
  facet normal 0 -1 -0
    outer loop
      vertex 71.75 24.25 9
      vertex 68.25 24.25 6
      vertex 71.75 24.25 6
    endloop
  endfacet
  facet normal 0 1 -0
    outer loop
      vertex 71.75 5.75 6
      vertex 68.25 5.75 9
      vertex 71.75 5.75 9
    endloop
  endfacet
  facet normal 0 1 0
    outer loop
      vertex 68.25 5.75 9
      vertex 71.75 5.75 6
      vertex 68.25 5.75 6
    endloop
  endfacet
  facet normal -1 0 0
    outer loop
      vertex 76.75 5.75 6
      vertex 76.75 24.25 9
      vertex 76.75 24.25 6
    endloop
  endfacet
  facet normal -1 -0 0
    outer loop
      vertex 76.75 24.25 9
      vertex 76.75 5.75 6
      vertex 76.75 5.75 9
    endloop
  endfacet
  facet normal -0 0 1
    outer loop
      vertex 73.25 24.25 6
      vertex 76.75 5.75 6
      vertex 76.75 24.25 6
    endloop
  endfacet
  facet normal 0 0 1
    outer loop
      vertex 76.75 5.75 6
      vertex 73.25 24.25 6
      vertex 73.25 5.75 6
    endloop
  endfacet
  facet normal 1 -0 0
    outer loop
      vertex 73.25 5.75 9
      vertex 73.25 24.25 6
      vertex 73.25 24.25 9
    endloop
  endfacet
  facet normal 1 0 0
    outer loop
      vertex 73.25 24.25 6
      vertex 73.25 5.75 9
      vertex 73.25 5.75 6
    endloop
  endfacet
  facet normal 0 -1 0
    outer loop
      vertex 73.25 24.25 6
      vertex 76.75 24.25 9
      vertex 73.25 24.25 9
    endloop
  endfacet
  facet normal 0 -1 -0
    outer loop
      vertex 76.75 24.25 9
      vertex 73.25 24.25 6
      vertex 76.75 24.25 6
    endloop
  endfacet
  facet normal 0 1 -0
    outer loop
      vertex 76.75 5.75 6
      vertex 73.25 5.75 9
      vertex 76.75 5.75 9
    endloop
  endfacet
  facet normal 0 1 0
    outer loop
      vertex 73.25 5.75 9
      vertex 76.75 5.75 6
      vertex 73.25 5.75 6
    endloop
  endfacet
  facet normal -1 0 0
    outer loop
      vertex 25 5 2.2
      vertex 25 25 9
      vertex 25 25 2.2
    endloop
  endfacet
  facet normal -1 -0 0
    outer loop
      vertex 25 25 9
      vertex 25 5 2.2
      vertex 25 5 9
    endloop
  endfacet
  facet normal -0 0 1
    outer loop
      vertex 18 25 2.2
      vertex 25 5 2.2
      vertex 25 25 2.2
    endloop
  endfacet
  facet normal 0 0 1
    outer loop
      vertex 25 5 2.2
      vertex 18 25 2.2
      vertex 18 5 2.2
    endloop
  endfacet
  facet normal 1 -0 0
    outer loop
      vertex 18 5 9
      vertex 18 25 2.2
      vertex 18 25 9
    endloop
  endfacet
  facet normal 1 0 0
    outer loop
      vertex 18 25 2.2
      vertex 18 5 9
      vertex 18 5 2.2
    endloop
  endfacet
  facet normal 0 -1 0
    outer loop
      vertex 18 25 2.2
      vertex 25 25 9
      vertex 18 25 9
    endloop
  endfacet
  facet normal 0 -1 -0
    outer loop
      vertex 25 25 9
      vertex 18 25 2.2
      vertex 25 25 2.2
    endloop
  endfacet
  facet normal 0 1 -0
    outer loop
      vertex 25 5 2.2
      vertex 18 5 9
      vertex 25 5 9
    endloop
  endfacet
  facet normal 0 1 0
    outer loop
      vertex 18 5 9
      vertex 25 5 2.2
      vertex 18 5 2.2
    endloop
  endfacet
  facet normal -1 0 0
    outer loop
      vertex 37 5 2.2
      vertex 37 25 9
      vertex 37 25 2.2
    endloop
  endfacet
  facet normal -1 -0 0
    outer loop
      vertex 37 25 9
      vertex 37 5 2.2
      vertex 37 5 9
    endloop
  endfacet
  facet normal -0 0 1
    outer loop
      vertex 30 25 2.2
      vertex 37 5 2.2
      vertex 37 25 2.2
    endloop
  endfacet
  facet normal 0 0 1
    outer loop
      vertex 37 5 2.2
      vertex 30 25 2.2
      vertex 30 5 2.2
    endloop
  endfacet
  facet normal 1 -0 0
    outer loop
      vertex 30 5 9
      vertex 30 25 2.2
      vertex 30 25 9
    endloop
  endfacet
  facet normal 1 0 0
    outer loop
      vertex 30 25 2.2
      vertex 30 5 9
      vertex 30 5 2.2
    endloop
  endfacet
  facet normal 0 -1 0
    outer loop
      vertex 30 25 2.2
      vertex 37 25 9
      vertex 30 25 9
    endloop
  endfacet
  facet normal 0 -1 -0
    outer loop
      vertex 37 25 9
      vertex 30 25 2.2
      vertex 37 25 2.2
    endloop
  endfacet
  facet normal 0 1 -0
    outer loop
      vertex 37 5 2.2
      vertex 30 5 9
      vertex 37 5 9
    endloop
  endfacet
  facet normal 0 1 0
    outer loop
      vertex 30 5 9
      vertex 37 5 2.2
      vertex 30 5 2.2
    endloop
  endfacet
  facet normal -1 0 0
    outer loop
      vertex 49 25 2.2
      vertex 49 24.25 6
      vertex 49 25 9
    endloop
  endfacet
  facet normal -1 0 0
    outer loop
      vertex 49 25 2.2
      vertex 49 5.75 6
      vertex 49 24.25 6
    endloop
  endfacet
  facet normal -1 0 0
    outer loop
      vertex 49 5 2.2
      vertex 49 5.75 6
      vertex 49 25 2.2
    endloop
  endfacet
  facet normal -1 0 0
    outer loop
      vertex 49 5 9
      vertex 49 5.75 6
      vertex 49 5 2.2
    endloop
  endfacet
  facet normal -1 0 0
    outer loop
      vertex 49 5.75 6
      vertex 49 5 9
      vertex 49 5.75 9
    endloop
  endfacet
  facet normal -1 -0 0
    outer loop
      vertex 49 25 9
      vertex 49 24.25 6
      vertex 49 24.25 9
    endloop
  endfacet
  facet normal -0 0 1
    outer loop
      vertex 42 25 2.2
      vertex 49 5 2.2
      vertex 49 25 2.2
    endloop
  endfacet
  facet normal 0 0 1
    outer loop
      vertex 49 5 2.2
      vertex 42 25 2.2
      vertex 42 5 2.2
    endloop
  endfacet
  facet normal 1 -0 0
    outer loop
      vertex 42 5 9
      vertex 42 25 2.2
      vertex 42 25 9
    endloop
  endfacet
  facet normal 1 0 0
    outer loop
      vertex 42 25 2.2
      vertex 42 5 9
      vertex 42 5 2.2
    endloop
  endfacet
  facet normal 0 -1 0
    outer loop
      vertex 42 25 2.2
      vertex 49 25 9
      vertex 42 25 9
    endloop
  endfacet
  facet normal 0 -1 -0
    outer loop
      vertex 49 25 9
      vertex 42 25 2.2
      vertex 49 25 2.2
    endloop
  endfacet
  facet normal 0 1 -0
    outer loop
      vertex 49 5 2.2
      vertex 42 5 9
      vertex 49 5 9
    endloop
  endfacet
  facet normal 0 1 0
    outer loop
      vertex 42 5 9
      vertex 49 5 2.2
      vertex 42 5 2.2
    endloop
  endfacet
  facet normal 0 -0.921634 0.38806
    outer loop
      vertex 59.98 23.2584 0
      vertex 90 25.25 4.73
      vertex 59.98 25.25 4.73
    endloop
  endfacet
  facet normal 0 -0.921634 0.38806
    outer loop
      vertex 90 25.25 4.73
      vertex 59.98 23.2584 0
      vertex 90 23.2584 0
    endloop
  endfacet
  facet normal 1 0 0
    outer loop
      vertex 59.98 25.25 4.73
      vertex 59.98 6.74158 0
      vertex 59.98 23.2584 0
    endloop
  endfacet
  facet normal 1 0 -0
    outer loop
      vertex 59.98 6.74158 0
      vertex 59.98 25.25 4.73
      vertex 59.98 4.75 4.73
    endloop
  endfacet
  facet normal 0 0 -1
    outer loop
      vertex 59.98 4.75 4.73
      vertex 90 25.25 4.73
      vertex 90 4.75 4.73
    endloop
  endfacet
  facet normal -0 0 -1
    outer loop
      vertex 90 25.25 4.73
      vertex 59.98 4.75 4.73
      vertex 59.98 25.25 4.73
    endloop
  endfacet
  facet normal 0 0.921635 0.388057
    outer loop
      vertex 90 6.74158 0
      vertex 59.98 4.75 4.73
      vertex 90 4.75 4.73
    endloop
  endfacet
  facet normal 0 0.921635 0.388057
    outer loop
      vertex 59.98 4.75 4.73
      vertex 90 6.74158 0
      vertex 59.98 6.74158 0
    endloop
  endfacet
  facet normal -1 0 0
    outer loop
      vertex 6.75 5.75 6
      vertex 6.75 24.25 9
      vertex 6.75 24.25 6
    endloop
  endfacet
  facet normal -1 -0 0
    outer loop
      vertex 6.75 24.25 9
      vertex 6.75 5.75 6
      vertex 6.75 5.75 9
    endloop
  endfacet
  facet normal -0 0 1
    outer loop
      vertex 3.25 24.25 6
      vertex 6.75 5.75 6
      vertex 6.75 24.25 6
    endloop
  endfacet
  facet normal 0 0 1
    outer loop
      vertex 6.75 5.75 6
      vertex 3.25 24.25 6
      vertex 3.25 5.75 6
    endloop
  endfacet
  facet normal 1 -0 0
    outer loop
      vertex 3.25 5.75 9
      vertex 3.25 24.25 6
      vertex 3.25 24.25 9
    endloop
  endfacet
  facet normal 1 0 0
    outer loop
      vertex 3.25 24.25 6
      vertex 3.25 5.75 9
      vertex 3.25 5.75 6
    endloop
  endfacet
  facet normal 0 -1 0
    outer loop
      vertex 3.25 24.25 6
      vertex 6.75 24.25 9
      vertex 3.25 24.25 9
    endloop
  endfacet
  facet normal 0 -1 -0
    outer loop
      vertex 6.75 24.25 9
      vertex 3.25 24.25 6
      vertex 6.75 24.25 6
    endloop
  endfacet
  facet normal 0 1 -0
    outer loop
      vertex 6.75 5.75 6
      vertex 3.25 5.75 9
      vertex 6.75 5.75 9
    endloop
  endfacet
  facet normal 0 1 0
    outer loop
      vertex 3.25 5.75 9
      vertex 6.75 5.75 6
      vertex 3.25 5.75 6
    endloop
  endfacet
endsolid OpenSCAD_Model
